<?xml version="1.0" encoding="utf-8"?>
<!-- Generator: Adobe Illustrator 22.0.0, SVG Export Plug-In . SVG Version: 6.00 Build 0)  -->
<svg version="1.1" id="Layer_1" xmlns="http://www.w3.org/2000/svg" xmlns:xlink="http://www.w3.org/1999/xlink" x="0px" y="0px"
	 viewBox="0 0 30 30" style="enable-background:new 0 0 30 30;" xml:space="preserve">
<style type="text/css">
	.st0{clip-path:url(#SVGID_2_);fill:#008D9E;}
	.st1{clip-path:url(#SVGID_2_);fill:none;stroke:#008D9E;stroke-width:0.25;}
</style>
<g>
	<defs>
		<rect id="SVGID_1_" x="6" y="2.8" width="17.6" height="24.2"/>
	</defs>
	<clipPath id="SVGID_2_">
		<use xlink:href="#SVGID_1_"  style="overflow:visible;"/>
	</clipPath>
	<path class="st0" d="M22.9,10.2c0.3,0,0.6,0.3,0.6,0.6v15.5c0,0.3-0.3,0.6-0.6,0.6H6.7c-0.3,0-0.6-0.3-0.6-0.6V10.8
		c0-0.3,0.3-0.6,0.6-0.6h5.2v1.2H7.3v14.3h15V11.4h-4.6v-1.2H22.9z"/>
	<path class="st1" d="M22.9,10.2c0.3,0,0.6,0.3,0.6,0.6v15.5c0,0.3-0.3,0.6-0.6,0.6H6.7c-0.3,0-0.6-0.3-0.6-0.6V10.8
		c0-0.3,0.3-0.6,0.6-0.6h5.2v1.2H7.3v14.3h15V11.4h-4.6v-1.2H22.9z"/>
	<path class="st0" d="M14.8,18.4c-0.3,0-0.6-0.3-0.6-0.6V5l-2.5,2.5c-0.2,0.2-0.6,0.2-0.8,0c-0.2-0.2-0.2-0.6,0-0.8l3.4-3.5
		c0.2-0.2,0.6-0.2,0.8,0l3.4,3.5c0.2,0.2,0.2,0.6,0,0.8c-0.2,0.2-0.6,0.2-0.8,0L15.4,5v12.8C15.4,18.1,15.1,18.4,14.8,18.4"/>
	<path class="st1" d="M14.8,18.4c-0.3,0-0.6-0.3-0.6-0.6V5l-2.5,2.5c-0.2,0.2-0.6,0.2-0.8,0c-0.2-0.2-0.2-0.6,0-0.8l3.4-3.5
		c0.2-0.2,0.6-0.2,0.8,0l3.4,3.5c0.2,0.2,0.2,0.6,0,0.8c-0.2,0.2-0.6,0.2-0.8,0L15.4,5v12.8C15.4,18.1,15.1,18.4,14.8,18.4z"/>
</g>
</svg>
